<svg width="24" height="23" viewBox="0 0 24 23" fill="none" xmlns="http://www.w3.org/2000/svg">
<path d="M12 -1L0 4.06836L0.777344 5.92188L12 1.18164L23.2227 5.92188L24 4.06836L12 -1ZM5 6V11.4434C5 12.2203 5.4141 12.901 5.9707 13.334C6.5273 13.767 7.23755 14 8 14V23H10V14C10.7625 14 11.4727 13.767 12.0293 13.334C12.5859 12.901 13 12.2203 13 11.4434V6H11V11.4434C11 11.5265 10.9679 11.6258 10.8008 11.7559C10.6336 11.8859 10.3425 12 10 12V6H8V12C7.65745 12 7.36637 11.8859 7.19922 11.7559C7.03207 11.6258 7 11.5265 7 11.4434V6H5ZM15 6V7V18V23H17V17L19 16V10C19 7.791 17.209 6 15 6Z" fill="#f96240"/>
</svg>
